<?xml version="1.0" standalone="no"?>
<!DOCTYPE svg PUBLIC "-//W3C//DTD SVG 20010904//EN"
 "http://www.w3.org/TR/2001/REC-SVG-20010904/DTD/svg10.dtd">
<svg version="1.0" xmlns="http://www.w3.org/2000/svg"
 width="512.000000pt" height="512.000000pt" viewBox="0 0 512.000000 512.000000"
 preserveAspectRatio="xMidYMid meet">
<metadata>
Created by potrace 1.11, written by Peter Selinger 2001-2013
</metadata>
<g transform="translate(0.000000,512.000000) scale(0.100000,-0.100000)"
fill="#000000" stroke="none">
<path d="M1255 4859 c-357 -63 -636 -209 -860 -452 -92 -100 -87 -94 -156
-197 -123 -183 -194 -378 -228 -622 -12 -84 -7 -327 8 -408 45 -241 134 -458
255 -620 23 -30 48 -64 56 -75 8 -11 513 -519 1123 -1129 l1107 -1109 1041
1039 c877 876 1168 1171 1229 1251 97 124 220 384 245 514 5 24 19 97 31 154
10 50 12 306 3 375 -15 119 -17 128 -39 207 -48 179 -129 346 -247 508 -65 90
-243 257 -348 327 -172 114 -371 197 -539 224 -21 3 -48 8 -60 11 -49 12 -354
11 -436 -2 -135 -21 -254 -55 -365 -105 -27 -13 -55 -24 -61 -25 -15 -4 -169
-101 -230 -146 -28 -20 -90 -74 -138 -119 l-86 -82 -63 60 c-34 34 -78 75 -97
92 -66 57 -232 162 -327 206 -98 46 -291 107 -378 119 -77 11 -384 13 -440 4z
m2601 -333 c188 -34 409 -141 548 -266 136 -121 254 -291 308 -439 11 -31 22
-63 25 -71 9 -23 23 -83 42 -184 10 -52 7 -289 -4 -346 -42 -213 -148 -423
-292 -579 l-68 -74 -523 0 -523 1 -104 -106 c-57 -59 -105 -105 -107 -102 -2
3 -98 192 -212 420 -114 228 -211 418 -215 422 -4 4 -85 -230 -181 -520 -96
-290 -175 -529 -177 -531 -7 -10 -17 17 -63 175 -27 93 -71 246 -99 339 -142
483 -176 600 -207 705 -19 63 -36 122 -39 130 -2 8 -26 92 -54 185 -27 94 -61
211 -76 260 -36 125 -36 125 -45 95 -9 -27 -190 -715 -195 -740 -2 -8 -14 -58
-28 -110 -33 -121 -128 -490 -132 -510 -2 -8 -4 -16 -5 -17 -3 -4 -5 -12 -14
-55 l-8 -38 -350 -2 -350 -3 -55 59 c-165 176 -270 384 -308 611 -27 160 -8
376 46 537 26 78 109 248 120 248 5 0 9 5 9 10 0 15 71 104 138 174 124 129
310 240 487 292 118 34 155 39 310 39 134 0 211 -7 280 -27 22 -6 45 -12 50
-14 36 -8 160 -61 224 -95 242 -131 437 -366 522 -629 15 -47 30 -78 33 -70 3
8 15 44 27 80 48 144 160 322 274 435 184 183 447 304 699 321 50 4 92 7 93 8
3 3 164 -12 199 -18z m-2027 -1192 c5 -21 18 -68 29 -104 11 -36 48 -159 82
-275 34 -115 71 -239 82 -275 11 -36 23 -78 28 -95 4 -16 37 -129 73 -250 35
-121 102 -347 148 -503 45 -155 86 -279 90 -275 6 6 69 188 74 213 0 3 18 57
40 120 22 63 40 117 40 120 6 30 241 730 246 730 3 0 83 -155 179 -345 l174
-345 24 28 c13 15 87 91 164 170 l142 142 396 0 397 0 -834 -833 c-458 -457
-838 -832 -843 -832 -5 0 -383 374 -840 830 l-831 830 327 5 328 5 8 30 c5 17
10 37 12 45 2 8 20 78 41 155 20 77 38 147 40 155 2 8 24 94 49 190 26 96 61
232 78 303 33 130 38 136 57 61z"/>
</g>
</svg>
