<?xml version="1.0" standalone="no"?>
<!DOCTYPE svg PUBLIC "-//W3C//DTD SVG 20010904//EN"
 "http://www.w3.org/TR/2001/REC-SVG-20010904/DTD/svg10.dtd">
<svg version="1.0" xmlns="http://www.w3.org/2000/svg"
 width="512.000000pt" height="512.000000pt" viewBox="0 0 512.000000 512.000000"
 preserveAspectRatio="xMidYMid meet">
<metadata>
Created by potrace 1.11, written by Peter Selinger 2001-2013
</metadata>
<g transform="translate(0.000000,512.000000) scale(0.100000,-0.100000)"
fill="#000000" stroke="none">
<path d="M1120 4744 c-113 -15 -196 -37 -302 -80 -76 -30 -223 -106 -238 -123
-3 -3 -27 -21 -55 -40 -27 -19 -81 -64 -119 -100 -197 -188 -326 -422 -382
-691 -26 -124 -25 -379 2 -509 32 -157 101 -320 191 -456 63 -94 72 -105 151
-189 l48 -51 402 0 402 0 10 31 c6 17 12 40 14 50 2 10 23 91 46 179 23 88 44
167 46 175 2 8 19 74 38 145 19 72 57 220 86 330 28 110 69 268 91 350 22 83
58 224 81 315 23 91 44 169 48 173 4 4 27 -63 52 -150 26 -87 82 -279 126
-428 44 -148 97 -326 117 -395 20 -69 47 -161 60 -205 54 -180 200 -677 211
-720 1 -5 14 -48 29 -95 14 -47 28 -92 30 -100 3 -8 11 -37 18 -65 l14 -50 13
30 c25 62 108 315 103 315 -3 0 -1 6 4 13 6 6 72 202 149 435 76 232 141 422
144 422 3 0 117 -223 254 -495 l248 -494 117 118 116 118 610 -1 c602 -2 610
-1 628 19 10 11 38 40 61 65 36 38 100 123 154 206 49 74 125 270 152 391 19
84 21 101 24 248 8 273 -66 530 -215 747 -57 84 -52 78 -159 188 -315 324
-769 454 -1224 350 -109 -24 -278 -95 -385 -161 -90 -54 -311 -251 -311 -277
0 -5 -4 -12 -8 -14 -12 -4 -94 -124 -130 -189 -38 -68 -86 -185 -103 -250 -7
-27 -15 -49 -18 -49 -3 0 -17 36 -30 80 -38 127 -118 277 -219 410 -169 222
-498 420 -774 465 -18 3 -46 8 -62 11 -54 11 -270 10 -356 -2z"/>
<path d="M1682 3342 c-6 -26 -34 -132 -62 -237 -42 -158 -163 -623 -176 -675
-2 -8 -12 -46 -22 -85 l-18 -70 -376 0 c-367 0 -376 0 -360 -19 53 -58 1886
-1886 1892 -1886 4 0 435 427 958 950 906 906 948 950 916 951 -19 0 -219 1
-446 1 l-411 1 -91 -96 c-190 -200 -290 -297 -298 -289 -4 4 -85 161 -179 347
-94 187 -175 344 -180 349 -5 6 -9 17 -9 25 0 9 -7 24 -14 34 -12 16 -24 -12
-101 -245 -47 -145 -90 -272 -95 -283 -5 -11 -68 -202 -141 -425 -72 -223
-135 -408 -138 -413 -4 -4 -17 25 -29 65 -20 67 -143 488 -240 818 -22 74
-110 374 -196 666 -86 292 -156 536 -156 542 0 6 -4 13 -8 16 -5 3 -14 -16
-20 -42z"/>
</g>
</svg>
